<?xml version="1.0" encoding="UTF-8" standalone="no"?>
<!DOCTYPE svg PUBLIC "-//W3C//DTD SVG 1.1//EN" "http://www.w3.org/Graphics/SVG/1.1/DTD/svg11.dtd">
<svg width="100%" height="100%" viewBox="0 0 100 71" version="1.1" xmlns="http://www.w3.org/2000/svg" xmlns:xlink="http://www.w3.org/1999/xlink" xml:space="preserve" xmlns:serif="http://www.serif.com/" style="fill-rule:evenodd;clip-rule:evenodd;stroke-linejoin:round;stroke-miterlimit:2;">
    <g transform="matrix(1,0,0,1,0,-14.8551)">
        <path d="M67.029,50L94.565,75.725L94.565,24.275L67.029,50ZM89.855,20.652L10.145,20.652L50,58.333L89.855,20.652ZM5.435,24.275L5.435,75.725L32.971,50L5.435,24.275ZM36.957,53.986L10.145,79.348L89.855,79.348L63.043,53.986L51.812,64.493C50.725,65.217 49.275,65.58 48.188,64.493L36.957,53.986ZM0,17.754C0,16.304 1.087,14.855 2.899,14.855L97.464,14.855C98.551,14.855 100,15.942 100,17.754L100,82.246C100,83.696 98.913,85.145 97.464,85.145L2.536,85.145C1.087,85.145 0,83.696 0,82.246L0,17.754Z" style="fill:white;fill-rule:nonzero;"/>
    </g>
</svg>
